<svg aria-hidden="true" style="position:absolute;width:0;height:0" xmlns="http://www.w3.org/2000/svg" overflow="hidden"><defs><symbol id="basket" viewBox="0 0 32 32"><path d="M31.513 9.179h.002l-4.4 9.778a1.467 1.467 0 01-1.239.862l-12.672.844.732 2.091h13.797a2.934 2.934 0 11-2.933 2.935H11.111a2.933 2.933 0 11-2.933-2.935h2.651L5.183 6.622h-3.36a1.467 1.467 0 010-2.934h4.4c.64 0 1.179.412 1.38.983l.005-.002.853 2.441h21.717a1.466 1.466 0 011.335 2.068zm-22.025.865l2.711 7.746 12.603-.841 3.108-6.905H9.489z"/></symbol><symbol id="facebook" viewBox="0 0 32 32"><path d="M23.494.245v5.072s-3.738-.373-4.674 1.06c-.512.783-.208 3.077-.254 4.724h4.959c-.418 1.925-.719 3.23-1.028 4.896h-3.958v15.759h-6.87V16.059H8.746v-4.958h2.891c.148-3.626.203-7.217 2.005-9.046C15.665-.002 17.596.246 23.494.246z"/></symbol><symbol id="instagram" viewBox="0 0 32 32"><path d="M28.353 32.225H4.372a3.998 3.998 0 01-3.997-3.998V4.247A3.998 3.998 0 014.372.249h23.981a3.998 3.998 0 013.997 3.998v23.98a3.998 3.998 0 01-3.997 3.998zM16.362 10.041a6.19 6.19 0 00-5.618 3.597h-.006c-.01.022-.018.046-.027.069-.059.131-.11.266-.16.401-.024.066-.05.13-.071.195-.046.14-.084.281-.119.425-.018.066-.037.132-.052.2a6.3 6.3 0 00-.076.46c-.009.062-.021.124-.029.187a6.195 6.195 0 1012.318 0c-.008-.064-.02-.125-.029-.187a6.3 6.3 0 00-.076-.46c-.015-.067-.035-.134-.052-.2a5.142 5.142 0 00-.119-.425c-.021-.065-.047-.129-.071-.195a6.315 6.315 0 00-.16-.401c-.01-.022-.017-.046-.027-.069h-.006a6.19 6.19 0 00-5.618-3.597zm12.391-4.597c0-.883-.716-1.598-1.599-1.598h-3.197c-.883 0-1.599.714-1.599 1.598v3.199a1.6 1.6 0 001.599 1.599h3.197a1.6 1.6 0 001.599-1.599V5.444zm0 8.194h-2.948c.227.828.35 1.7.35 2.599 0 5.408-4.384 9.791-9.792 9.791s-9.792-4.383-9.792-9.791c0-.899.122-1.771.35-2.599H3.973v13.39a1.6 1.6 0 001.599 1.6h21.583a1.6 1.6 0 001.599-1.6v-13.39z"/></symbol><symbol id="pinterest" viewBox="0 0 32 32"><path d="M14.832 20.743c-.257 1.025-.517 2.1-.785 3.151-.265 1.036-.498 2.087-.884 3.04-.639 1.577-1.45 3.1-2.514 4.334-.708.821-.558.494-.77.449-.162-.034-.176-.193-.208-.425-.174-1.253-.055-2.702.009-4.11.074-1.605.411-2.939.725-4.272.596-2.54 1.164-5.03 1.766-7.586.039-.17.148-.45.111-.548-.273-.71-.45-1.348-.528-2.094a6.66 6.66 0 01.171-2.391c.341-1.302 1.124-2.455 2.331-2.878.768-.266 1.618-.145 2.135.162.532.319.897.821 1.067 1.534.182.757.048 1.663-.098 2.327-.329 1.5-.761 2.626-1.153 4.074-.194.718-.415 1.455-.233 2.23a2.598 2.598 0 001.042 1.569c.524.382 1.145.59 2 .56 1.511-.053 2.561-1.019 3.263-1.93 1.124-1.458 1.803-3.426 2.062-5.767.082-.756.144-1.623.086-2.479-.108-1.58-.602-2.852-1.387-3.836-.746-.939-1.804-1.685-3.092-2.106-1.276-.416-3.042-.555-4.612-.287-2.853.489-4.864 2.11-6.049 4.348-.62 1.172-1.03 2.519-1.03 4.197 0 1.294.319 2.295.834 3.077.164.247.404.452.564.735.228.401-.034.998-.146 1.433-.135.523-.15 1.246-.761 1.258-.254.005-.571-.18-.785-.299-1.606-.887-2.581-2.502-2.981-4.596-.244-1.273-.242-2.756 0-3.985a11.36 11.36 0 011.153-3.177c1.002-1.85 2.47-3.329 4.257-4.385 1.374-.812 2.923-1.382 4.809-1.657.625-.091 1.273-.129 1.975-.162a11.87 11.87 0 015.324.997 10.884 10.884 0 013.668 2.641c1.031 1.126 1.782 2.436 2.257 4.073.249.852.49 1.762.49 2.815 0 1.056-.223 1.985-.379 2.914-.583 3.481-2.239 6.327-4.724 7.948a8.206 8.206 0 01-2.159.996c-.821.239-1.758.418-2.761.348-.974-.066-1.771-.331-2.441-.71-.665-.375-1.223-.836-1.62-1.531z"/></symbol><symbol id="search" viewBox="0 0 32 32"><path d="M30.786 26.636a2.933 2.933 0 11-4.149 4.148l-8.597-8.596a11.663 11.663 0 01-5.95 1.634C5.61 23.822.357 18.569.357 12.089S5.61.356 12.09.356s11.733 5.253 11.733 11.733c0 2.174-.603 4.204-1.634 5.95l8.597 8.597zM12.089 3.287c-4.86 0-8.8 3.941-8.8 8.802s3.94 8.8 8.8 8.8c4.86 0 8.8-3.94 8.8-8.8s-3.94-8.802-8.8-8.802z"/></symbol><symbol id="twitter" viewBox="0 0 32 32"><path d="M21.554 3.817c2.503-.044 3.836.868 5.109 2.027 1.081-.092 2.485-.695 3.312-1.116l.804-.439c-.473 1.276-1.113 2.276-2.097 3.035-.219.167-.436.395-.71.502v.016c1.403-.014 2.56-.647 3.659-.991v.016c-.577.917-1.359 1.849-2.192 2.516l-1.009.801c.018 1.486-.022 2.903-.299 4.151-1.615 7.255-5.893 12.181-12.663 14.292-2.432.757-6.361 1.068-9.147.377-1.381-.342-2.629-.73-3.799-1.242a14.921 14.921 0 01-1.83-.944c-.19-.114-.378-.23-.567-.345.628.018 1.364.192 2.065.078.636-.102 1.259-.075 1.846-.203 1.462-.321 2.761-.746 3.878-1.401.543-.318 1.366-.689 1.751-1.147-.726.012-1.385-.156-1.924-.346-2.091-.738-3.308-2.096-4.101-4.135.634.07 2.459.235 2.886-.126-.798-.044-1.564-.506-2.113-.849-1.682-1.052-3.054-2.817-3.044-5.534l.662.314c.423.178.853.273 1.356.378.213.044.639.169.884.078h-.032c-.325-.378-.855-.63-1.183-1.038-1.079-1.34-2.09-3.404-1.451-5.863.162-.624.42-1.174.694-1.682l.032.015c.126.263.406.457.583.677.551.683 1.231 1.297 1.924 1.839 2.361 1.846 4.486 2.981 7.9 3.82.866.214 1.867.377 2.902.378-.29-.846-.197-2.215.031-3.034.576-2.06 1.825-3.543 3.659-4.34.438-.19.924-.329 1.435-.441l.789-.094z"/></symbol></defs></svg>